<svg xmlns="http://www.w3.org/2000/svg" width="461.248" height="132.644" viewBox="0 0 461.248 132.644">
  <g id="Group_3" data-name="Group 3" transform="translate(-99.13 -616.402)">
    <g id="Group_3-2" data-name="Group 3" transform="translate(26 -57.187)">
      <path id="Path_186" data-name="Path 186" d="M27.134,9.388,16.57-27.815h-.318q.742,9.5.742,14.768V9.388H4.629V-42.265H23.213L33.988-5.592h.283L44.835-42.265H63.453V9.388H50.629V-13.259q0-1.767.053-3.922t.477-10.564h-.318L40.418,9.388Zm41.8-40.029H83.486L90.269-7.677a22.532,22.532,0,0,1,.671,4.346h.283a24.057,24.057,0,0,1,.848-4.275l6.96-23.035h14.1L97.3,11.931q-3.038,8.126-7.472,11.482T78.257,26.77a27.811,27.811,0,0,1-5.653-.6V15.323a19.457,19.457,0,0,0,4.275.424,6.954,6.954,0,0,0,3.215-.707,7.318,7.318,0,0,0,2.4-2,17.545,17.545,0,0,0,2.19-4.222Zm91.576-.919a8.9,8.9,0,0,0-7.773,4.081q-2.791,4.081-2.791,11.253,0,14.909,11.341,14.909a23.227,23.227,0,0,0,6.642-.954,66.453,66.453,0,0,0,6.465-2.3v11.8a35.78,35.78,0,0,1-14.627,2.862q-11.694,0-17.93-6.783T135.6-16.3a31.283,31.283,0,0,1,3.021-14.1,21.613,21.613,0,0,1,8.691-9.345,26.247,26.247,0,0,1,13.337-3.268,36.741,36.741,0,0,1,16,3.639L172.376-28.38a48.064,48.064,0,0,0-5.723-2.261,20,20,0,0,0-6.148-.919ZM209.76,9.388l-2.65-5.3h-.283a15.733,15.733,0,0,1-5.688,4.734,18.788,18.788,0,0,1-7.49,1.272q-5.653,0-8.9-3.392T181.5-2.837q0-6.4,4.452-9.521t12.9-3.515l6.677-.212v-.565q0-4.946-4.876-4.946-4.381,0-11.129,2.968l-3.992-9.115q7-3.6,17.665-3.6,7.7,0,11.924,3.816t4.222,10.67V9.388ZM199.51.343a6.23,6.23,0,0,0,4.293-1.59,5.277,5.277,0,0,0,1.784-4.134V-8.489l-3.18.141q-6.819.247-6.819,5.017Q195.588.343,199.51.343Zm53.666-31.691a12.026,12.026,0,0,1,10.369,5.476q3.833,5.476,3.833,15.157,0,9.751-3.869,15.28a12.4,12.4,0,0,1-10.758,5.529,14.932,14.932,0,0,1-3.957-.477A11.663,11.663,0,0,1,245.7,8.292a16.2,16.2,0,0,1-3.162-2.826h-.848L239.5,9.388H228.728V-45.586h13.814V-33.15q0,2.226-.495,7.667h.495a12.622,12.622,0,0,1,4.646-4.487A12.719,12.719,0,0,1,253.176-31.348ZM248.124-20.5a4.729,4.729,0,0,0-4.24,2.014q-1.343,2.014-1.343,6.324v1.943q0,4.911,1.343,7.048a4.778,4.778,0,0,0,4.381,2.137,4.076,4.076,0,0,0,3.745-2.491,16.217,16.217,0,0,0,1.307-7.331Q253.317-20.5,248.124-20.5Z" transform="translate(267 779.463)"/>
    </g>
    <g id="XMLID_591_" transform="translate(99.13 616.532)">
      <rect id="XMLID_592_" width="33.659" height="20.713" transform="translate(54.261 -0.13)" fill="#f1cb30"/>
      <rect id="XMLID_593_" width="13.809" height="20.713" transform="translate(54.261 -0.13)" fill="#e0bd2c"/>
      <path id="XMLID_594_" d="M80.327,330v23.715a6.776,6.776,0,0,1-6.776,6.776H66.776A6.776,6.776,0,0,1,60,353.715V330Z" transform="translate(-39.673 -228.428)" fill="#787681"/>
      <path id="XMLID_595_" d="M320.327,330v23.715a6.776,6.776,0,0,1-6.776,6.776h-6.776A6.776,6.776,0,0,1,300,353.716V330Z" transform="translate(-198.363 -228.428)" fill="#787681"/>
      <path id="XMLID_596_" d="M60,330v23.715a6.776,6.776,0,0,0,6.776,6.776h3.388V330Z" transform="translate(-39.673 -228.428)" fill="#57565c"/>
      <path id="XMLID_597_" d="M300,330v23.715a6.776,6.776,0,0,0,6.776,6.776h3.388V330Z" transform="translate(-198.363 -228.428)" fill="#57565c"/>
      <path id="XMLID_598_" d="M40,103.879,53.552,70h88.086l13.552,33.879" transform="translate(-26.448 -46.302)" fill="#98c8ed"/>
      <path id="XMLID_599_" d="M175.64,70H137.31l-33.879,33.879h38.33Z" transform="translate(-68.39 -46.302)" fill="#d1e3fa"/>
      <g id="XMLID_600_" transform="translate(8.833 18.616)">
        <path id="XMLID_601_" d="M141.262,95.848,128.988,65.164h-81.2L35.51,95.848l-9.437-3.775L40.9,55h94.966L150.7,92.074Z" transform="translate(-26.073 -55)" fill="#57565c"/>
      </g>
      <path id="XMLID_602_" d="M128.74,220.982a13.552,13.552,0,0,0,13.552-13.552V173.552A13.552,13.552,0,0,0,128.74,160H13.552A13.552,13.552,0,0,0,0,173.552v33.879a13.552,13.552,0,0,0,13.552,13.552Z" transform="translate(0 -105.811)" fill="#f1cb30"/>
      <ellipse id="XMLID_605_" cx="9.925" cy="10.357" rx="9.925" ry="10.357" transform="translate(20.601 74.093)" fill="#fff"/>
      <ellipse id="XMLID_608_" cx="9.925" cy="10.357" rx="9.925" ry="10.357" transform="translate(101.729 74.093)" fill="#fff"/>
      <g id="XMLID_609_" transform="translate(50.808 79.271)">
        <rect id="XMLID_610_" width="40.564" height="10.357" fill="#57565c"/>
      </g>
      <path id="XMLID_611_" d="M13.552,160h0A13.552,13.552,0,0,0,0,173.552v33.879a13.552,13.552,0,0,0,13.552,13.552h0Z" transform="translate(0 -105.811)" fill="#e0bd2c"/>
      <path id="XMLID_612_" d="M380,160v60.982a13.552,13.552,0,0,0,13.552-13.552V173.552A13.552,13.552,0,0,0,380,160Z" transform="translate(-251.26 -105.811)" fill="#f5dc60"/>
    </g>
  </g>
</svg>
